<svg xmlns="http://www.w3.org/2000/svg" viewBox="0 0 800 800" width="800" height="800" role="img">
  <defs>
    <radialGradient id="plateSheen" cx="36%" cy="28%" r="78%">
      <stop offset="0" stop-color="#ffffff" stop-opacity=".85"/>
      <stop offset="1" stop-color="#ffffff" stop-opacity="0"/>
    </radialGradient>
    <linearGradient id="fileSheen" x1="0" y1="0" x2="0" y2="1">
      <stop offset="0" stop-color="#ffffff" stop-opacity=".38"/>
      <stop offset="1" stop-color="#0C1F1E" stop-opacity=".22"/>
    </linearGradient>
    <radialGradient id="brothSheen" cx="38%" cy="30%" r="72%">
      <stop offset="0" stop-color="#ffffff" stop-opacity=".5"/>
      <stop offset="1" stop-color="#0C1F1E" stop-opacity=".18"/>
    </radialGradient>
    <linearGradient id="tartareSheen" x1="0" y1="0" x2="0" y2="1">
      <stop offset="0" stop-color="#ffffff" stop-opacity=".34"/>
      <stop offset="1" stop-color="#0C1F1E" stop-opacity=".2"/>
    </linearGradient>
    <linearGradient id="ryeSheen" x1="0" y1="0" x2="1" y2="1">
      <stop offset="0" stop-color="#ffffff" stop-opacity=".2"/>
      <stop offset="1" stop-color="#0C1F1E" stop-opacity=".3"/>
    </linearGradient>
    
  <filter id="dishGrain" x="0" y="0" width="100%" height="100%">
    <feTurbulence type="fractalNoise" baseFrequency="0.9" numOctaves="3" seed="7" result="n"/>
    <feColorMatrix in="n" type="saturate" values="0"/>
  </filter>
    <clipPath id="vesselClip"><circle cx="400" cy="400" r="264"/></clipPath>
  </defs>
  <g><circle cx="400" cy="400" r="264" fill="#D3C9B4" opacity=".55"/>
         <circle cx="400" cy="400" r="252" fill="#FBF9F4"/>
         <circle cx="400" cy="400" r="252" fill="url(#plateSheen)"/>
         <circle cx="400" cy="400" r="176" fill="none" stroke="#D3C9B4" stroke-width="10" opacity=".85"/></g>
  <g><circle cx="400" cy="400" r="152" fill="#C9A96A" opacity=".78"/><circle cx="400" cy="400" r="152" fill="url(#brothSheen)"/><circle cx="400" cy="400" r="58" fill="none" stroke="#FBF9F4" stroke-opacity=".2" stroke-width="2"/><circle cx="400" cy="400" r="98" fill="none" stroke="#FBF9F4" stroke-opacity=".2" stroke-width="2"/><circle cx="400" cy="400" r="138" fill="none" stroke="#FBF9F4" stroke-opacity=".2" stroke-width="2"/><circle cx="449.56" cy="358.46" r="12.53" fill="#1E4340" opacity=".72"/><circle cx="385.83" cy="515.94" r="12.98" fill="#C08579" opacity=".72"/><circle cx="519.28" cy="426.93" r="10.27" fill="#C08579" opacity=".72"/><circle cx="419.84" cy="433.17" r="9.54" fill="#1E4340" opacity=".72"/><circle cx="429.35" cy="321.53" r="7.12" fill="#C08579" opacity=".72"/><circle cx="283.68" cy="357.85" r="9.87" fill="#C08579" opacity=".72"/><circle cx="345.92" cy="412.68" r="7.81" fill="#1E4340" opacity=".72"/><circle cx="411.06" cy="337.19" r="8.72" fill="#C08579" opacity=".72"/><circle cx="375.73" cy="439.35" r="10.72" fill="#C08579" opacity=".72"/><circle cx="378.96" cy="366.6" r="7.71" fill="#1E4340" opacity=".72"/><circle cx="466.6" cy="303.93" r="9.91" fill="#C08579" opacity=".72"/><path d="M330 352 q34 -40 72 -14 q40 26 76 -10" stroke="#FBF9F4" stroke-opacity=".45" stroke-width="4" fill="none" stroke-linecap="round"/></g>
  <g style="mix-blend-mode:multiply" opacity=".07">
    <rect width="800" height="800" filter="url(#dishGrain)" clip-path="url(#vesselClip)"/>
  </g>
</svg>
