<?xml version="1.0" encoding="UTF-8"?> <svg xmlns="http://www.w3.org/2000/svg" viewBox="0 0 100 100" fill-rule="evenodd"> <g fill="#912f32" stroke-width="1" stroke="#912f32"> <path d="M84.44 16.56a48 48 0 1 0 0 67.88 48.06 48.06 0 0 0 0-67.88ZM18.68 82.32A45 45 0 1 1 93.71 63L51 49.23a1.5 1.5 0 0 0-1.89 1.89l13.73 42.64a45 45 0 0 1-44.16-11.44Zm63.64 0A44.73 44.73 0 0 1 65.7 92.85L52.83 53l39.95 12.87a44.72 44.72 0 0 1-10.46 16.45Z"></path> <path d="M38.92 73.83a6.5 6.5 0 1 0-6.5-6.5 6.51 6.51 0 0 0 6.5 6.5Zm0-10a3.5 3.5 0 1 1-3.5 3.5 3.5 3.5 0 0 1 3.5-3.5Zm7-40.83a6.5 6.5 0 1 0 6.5 6.5 6.51 6.51 0 0 0-6.5-6.5Zm0 10a3.5 3.5 0 1 1 3.5-3.5 3.5 3.5 0 0 1-3.5 3.5Zm37.7 34.08a1.5 1.5 0 0 0-2 .59 35.63 35.63 0 0 1-13.25 13.51 1.5 1.5 0 0 0 1.51 2.59A38.65 38.65 0 0 0 84.2 69.12a1.5 1.5 0 0 0-.58-2.04Z"></path> <path d="M55.89 87.14a1.5 1.5 0 0 0-1.65-1.34 36.05 36.05 0 0 1-3.74.2A35.5 35.5 0 1 1 86 50.5a36.1 36.1 0 0 1-.32 4.78 1.5 1.5 0 1 0 3 .4A39.13 39.13 0 0 0 89 50.5 38.5 38.5 0 1 0 50.5 89a39.11 39.11 0 0 0 4.05-.21 1.5 1.5 0 0 0 1.34-1.65Z"></path> <path d="M33.6 43.15a1.5 1.5 0 0 0-2.12 0L22.59 52a1.5 1.5 0 1 0 2.12 2.12l8.89-8.89a1.5 1.5 0 0 0 0-2.08ZM68.62 33a6.5 6.5 0 1 0 6.5 6.5 6.51 6.51 0 0 0-6.5-6.5Zm0 10a3.5 3.5 0 1 1 3.5-3.5 3.5 3.5 0 0 1-3.5 3.5Z"></path> </g> </svg> 